<?xml version="1.0" encoding="utf-8"?>
<!-- Generator: Adobe Illustrator 24.0.1, SVG Export Plug-In . SVG Version: 6.00 Build 0)  -->
<svg version="1.1" id="Layer_1" xmlns="http://www.w3.org/2000/svg" xmlns:xlink="http://www.w3.org/1999/xlink" x="0px" y="0px"
	 viewBox="0 0 32 32" style="enable-background:new 0 0 32 32;" xml:space="preserve">
<style type="text/css">
	.st0{clip-path:url(#SVGID_2_);fill:#EA1D25;}
</style>
<g>
	<defs>
		<rect id="SVGID_1_" x="-0.78" y="-29.88" width="444.84" height="65.28"/>
	</defs>
	<clipPath id="SVGID_2_">
		<use xlink:href="#SVGID_1_"  style="overflow:visible;"/>
	</clipPath>
	<path class="st0" d="M25.32,31.13l-0.61-3.89c-1.11,1.56-2.45,2.73-4.03,3.51c-1.58,0.78-3.41,1.18-5.49,1.18
		c-1.95,0-3.75-0.35-5.4-1.05c-1.65-0.7-3.12-1.76-4.43-3.16c-1.31-1.41-2.31-3.08-2.99-5.01c-0.68-1.93-1.02-4.03-1.02-6.3
		c0-4.93,1.41-8.88,4.23-11.86c2.82-2.98,6.57-4.46,11.25-4.46c3.52,0,6.43,0.88,8.73,2.65c2.3,1.77,3.76,4.26,4.39,7.46h-7.39
		c-0.49-1.28-1.25-2.26-2.26-2.93c-1.02-0.67-2.25-1-3.7-1c-2.2,0-3.98,0.9-5.36,2.71c-1.37,1.81-2.06,4.19-2.06,7.14
		c0,2.91,0.67,5.23,2.02,6.96c1.34,1.73,3.14,2.6,5.4,2.6c1.8,0,3.29-0.45,4.47-1.36c1.18-0.91,1.91-2.19,2.2-3.84h-6.72v-5.79h13.6
		v16.44H25.32z"/>
</g>
</svg>
